<?xml version="1.0" encoding="UTF-8" standalone="no"?>
<!-- Creator: fig2dev Version 3.2.9 -->
<!-- CreationDate: 2024-07-25 14:18:32 -->
<!-- Magnification: 1.05 -->
<svg	xmlns="http://www.w3.org/2000/svg"
	xmlns:xlink="http://www.w3.org/1999/xlink"
	width="135pt" height="133pt"
	viewBox="3998 255 2128 2100">
<g fill="none">
<!-- Arc -->
<defs>
<clipPath id="cp0">
	<path clip-rule="evenodd" d="M 3998,255 H 6126 V 2355 H 3998 z
		M 5230,1836 5252,1892 5409,1804 5404,1791z"/>
</clipPath>
</defs>
<path d="M 5400,1800 A 1001 1001 0 0 1 4950 1906" clip-path="url(#cp0)"
	stroke="#000000" stroke-width="8px"/>
<!-- Backward arrow to point 5400,1800 -->
<polygon points=" 5252,1892 5366,1813 5230,1836 5252,1892"
	stroke="#000000" stroke-width="15px" stroke-miterlimit="8" fill="#000000"/>
<!-- Arc -->
<defs>
<clipPath id="cp1">
	<path clip-rule="evenodd" d="M 3998,255 H 6126 V 2355 H 3998 z
		M 5455,598 5466,539 5305,532 5302,545z
		M 5230,1836 5252,1892 5409,1804 5404,1791z"/>
</clipPath>
</defs>
<path d="M 5850,900 A 654 654 0 0 0 5310 540" clip-path="url(#cp1)"
	stroke="#000000" stroke-width="8px"/>
<!-- Forward arrow to point 5310,540 -->
<polygon points=" 5466,539 5328,543 5455,598 5466,539"
	stroke="#000000" stroke-width="8px" stroke-miterlimit="8" fill="#000000"/>
<!-- Line -->
<defs>
<clipPath id="cp2">
	<path clip-rule="evenodd" d="M 3998,255 H 6126 V 2355 H 3998 z
		M 5544,840 5544,960 5868,918 5868,882z
		M 5230,1836 5252,1892 5409,1804 5404,1791z"/>
</clipPath>
</defs>
<polyline points=" 4950,900 5850,900" clip-path="url(#cp2)"
	stroke="#000000" stroke-width="30px"/>
<!-- Forward arrow to point 5850,900 -->
<polygon points=" 5544,960 5814,900 5544,840 5544,960"
	stroke="#000000" stroke-width="15px" stroke-miterlimit="8" fill="#000000"/>
<!-- Line -->
<defs>
<clipPath id="cp3">
	<path clip-rule="evenodd" d="M 3998,255 H 6126 V 2355 H 3998 z
		M 5010,1944 4890,1944 4932,2268 4968,2268z
		M 5230,1836 5252,1892 5409,1804 5404,1791z"/>
</clipPath>
</defs>
<polyline points=" 4950,900 4950,2250" clip-path="url(#cp3)"
	stroke="#000000" stroke-width="30px"/>
<!-- Forward arrow to point 4950,2250 -->
<polygon points=" 4890,1944 4950,2214 5010,1944 4890,1944"
	stroke="#000000" stroke-width="15px" stroke-miterlimit="8" fill="#000000"/>
<!-- Line -->
<polyline points=" 4950,900 5400,1800"
	stroke="#000000" stroke-width="8px"/>
<!-- Line -->
<polyline points=" 4950,900 5310,540"
	stroke="#000000" stroke-width="8px"/>
<!-- Text -->
<text xml:space="preserve" x="4860" y="990" fill="#000000" font-family="Helvetica" font-style="normal" font-weight="normal" font-size="168" text-anchor="end">position</text>
<!-- Text -->
<text xml:space="preserve" x="5040" y="2340" fill="#000000" font-family="Helvetica" font-style="normal" font-weight="normal" font-size="168" text-anchor="start">direction</text>
<!-- Text -->
<text xml:space="preserve" x="5850" y="990" fill="#000000" font-family="Helvetica" font-style="normal" font-weight="normal" font-size="168" text-anchor="start">c0</text>
<!-- Text -->
<text xml:space="preserve" x="5490" y="450" fill="#000000" font-family="Helvetica" font-style="normal" font-weight="normal" font-size="168" text-anchor="start">c90</text>
<!-- Text -->
<text xml:space="preserve" x="5085" y="1755" fill="#000000" font-family="Times,Symbol" font-style="normal" font-weight="normal" font-size="168" text-anchor="start">&#947;</text>
</g>
</svg>
